<?xml version="1.0" standalone="no"?>
<!DOCTYPE svg PUBLIC "-//W3C//DTD SVG 20010904//EN"
 "http://www.w3.org/TR/2001/REC-SVG-20010904/DTD/svg10.dtd">
<svg version="1.0" xmlns="http://www.w3.org/2000/svg"
 width="2048.000000pt" height="2048.000000pt" viewBox="0 0 2048.000000 2048.000000"
 preserveAspectRatio="xMidYMid meet">
<metadata>
Created by potrace 1.14, written by Peter Selinger 2001-2017
</metadata>
<g transform="translate(0.000000,2048.000000) scale(0.100000,-0.100000)"
fill="#000000" stroke="none">
<path d="M17110 16850 c-296 -19 -287 -18 -585 -56 -417 -53 -883 -137 -1270
-228 -165 -39 -561 -108 -750 -131 -66 -8 -196 -26 -289 -39 -93 -14 -248 -33
-345 -41 -185 -17 -477 -49 -596 -65 -38 -6 -155 -19 -260 -30 -104 -11 -289
-33 -410 -49 -331 -45 -775 -92 -980 -106 -147 -10 -444 -54 -535 -80 -47 -13
-99 -24 -117 -23 -43 1 -61 -16 -67 -65 -3 -23 -13 -211 -21 -417 -9 -206 -20
-447 -26 -535 -22 -359 -39 -671 -49 -870 -10 -217 -14 -274 -80 -1215 -75
-1073 -92 -1335 -86 -1370 6 -40 58 -226 105 -376 l31 -101 253 -123 c138 -68
457 -222 707 -342 250 -121 459 -223 463 -228 5 -4 -45 -36 -110 -70 -65 -35
-185 -100 -268 -145 -181 -100 -596 -328 -795 -438 -262 -145 -277 -159 -379
-372 -29 -60 -77 -157 -106 -215 l-53 -105 -16 -270 c-9 -149 -25 -398 -36
-555 -11 -157 -36 -537 -55 -845 -19 -308 -44 -684 -55 -835 -47 -662 -55
-895 -31 -923 17 -21 40 -22 55 -3 7 9 74 23 192 40 99 14 294 48 432 75 139
28 305 58 370 66 64 9 191 27 282 40 91 13 208 29 260 35 52 5 165 19 250 30
196 25 586 74 845 106 110 13 224 28 253 34 29 5 157 19 285 30 128 12 340 34
472 50 132 16 269 32 305 35 315 27 417 36 495 46 172 20 451 60 595 84 80 13
208 34 285 45 360 55 1193 306 1454 439 42 21 104 50 138 65 87 36 319 167
450 253 113 75 288 219 378 312 28 28 76 89 107 134 174 251 218 320 237 373
12 32 37 84 55 114 58 95 134 254 190 397 29 76 69 170 89 210 93 194 267 899
267 1087 0 33 7 99 15 146 9 54 15 149 15 260 0 231 -25 389 -79 510 -21 47
-50 110 -64 141 -35 80 -160 282 -211 342 -24 29 -49 63 -56 77 -40 80 -195
299 -269 380 -48 52 -107 119 -131 148 -40 48 -161 145 -266 213 -23 15 -45
32 -49 39 -6 10 134 156 291 301 21 20 89 92 149 159 61 67 136 151 168 187
60 65 276 388 381 567 125 212 266 543 369 866 36 113 72 232 81 265 27 112
85 400 96 478 13 102 13 372 -1 417 -5 19 -14 87 -19 150 -8 99 -15 132 -53
235 -72 192 -103 262 -133 299 -113 134 -159 185 -178 196 -12 6 -38 30 -57
52 -125 146 -214 232 -308 295 -20 13 -77 58 -127 99 -96 80 -146 111 -319
200 -131 68 -151 75 -325 121 -134 36 -137 36 -355 38 -124 2 -341 -5 -495
-15z m-1340 -3430 l0 -339 -32 -5 c-66 -10 -286 -36 -393 -46 -60 -6 -150 -17
-200 -25 -49 -8 -144 -19 -210 -25 -105 -9 -347 -39 -559 -71 -38 -5 -71 -7
-74 -5 -3 3 0 70 7 150 6 79 11 222 11 317 0 96 3 184 6 196 7 25 -7 23 299
48 196 17 477 51 695 85 69 11 188 27 265 36 77 9 142 18 144 20 2 2 13 4 23
4 17 0 18 -17 18 -340z m-248 -3480 c3 -52 14 -153 22 -225 9 -71 16 -182 16
-246 l0 -116 -137 -6 c-99 -3 -168 -12 -243 -30 -162 -39 -208 -45 -450 -57
-124 -6 -286 -18 -360 -26 -233 -26 -405 -42 -409 -38 -6 5 18 504 28 584 l6
55 50 7 c28 5 111 21 185 38 172 38 268 50 388 50 141 1 268 15 440 50 138 28
386 60 437 57 18 -2 21 -12 27 -97z"/>
<path d="M9810 15880 c-36 -20 -586 -113 -1620 -275 -267 -42 -804 -129 -1194
-194 -626 -103 -711 -119 -723 -137 -9 -15 -17 -119 -28 -390 -18 -440 -40
-969 -60 -1449 -17 -413 -40 -1004 -56 -1450 -6 -176 -12 -321 -14 -323 -2 -3
-648 -82 -1119 -137 -170 -20 -311 -34 -313 -31 -6 5 26 558 52 911 8 110 33
497 55 860 40 652 45 734 75 1135 26 346 43 666 38 695 -5 23 -10 26 -32 22
-125 -24 -1900 -315 -3221 -527 -135 -22 -259 -37 -275 -34 -44 8 -70 -23 -62
-72 3 -20 -3 -156 -13 -303 -11 -146 -40 -594 -65 -996 -25 -401 -63 -973 -85
-1270 -77 -1054 -155 -2190 -240 -3505 -40 -619 -63 -954 -140 -2075 -53 -758
-94 -1347 -122 -1725 -30 -414 -30 -426 5 -456 41 -35 90 -32 429 25 161 27
534 89 828 136 1132 183 2323 384 2334 395 6 6 12 32 12 58 1 26 7 90 13 142
24 210 41 394 51 570 15 256 64 985 100 1475 16 226 36 507 45 625 8 118 19
269 25 335 5 66 13 184 17 263 3 78 10 145 15 148 6 4 121 14 256 25 136 10
290 22 342 28 52 6 226 17 385 26 160 8 314 18 343 21 l52 5 0 -41 c0 -46 -55
-920 -100 -1575 -16 -242 -37 -539 -45 -660 -8 -121 -19 -294 -25 -385 -5 -91
-20 -310 -31 -488 -22 -317 -22 -323 -3 -358 10 -20 29 -40 41 -44 12 -5 65
-5 120 1 137 13 733 97 1278 179 253 38 510 76 570 84 1074 151 1484 212 1537
226 42 12 82 55 74 83 -2 10 -1 73 4 140 5 67 14 205 20 307 6 102 19 307 30
455 46 625 156 2426 165 2695 l5 138 -38 55 c-20 30 -56 81 -80 113 -24 33
-70 101 -103 151 -44 69 -70 99 -102 116 -89 51 -892 491 -1085 595 -151 81
-199 112 -190 119 16 13 875 533 1154 699 l201 119 78 119 c119 182 325 578
336 644 14 89 55 838 79 1462 20 513 41 969 60 1320 10 195 26 515 35 710 9
195 21 372 27 393 14 46 5 66 -38 83 -25 11 -35 10 -64 -6z"/>
<path d="M10013 11860 c-25 -10 -62 -80 -151 -285 -89 -206 -272 -653 -272
-663 0 -20 -55 -51 -490 -272 -617 -315 -622 -318 -601 -372 11 -28 -3 -21
316 -157 143 -60 339 -143 435 -184 96 -41 198 -82 225 -91 28 -9 55 -20 62
-24 7 -4 66 -122 131 -262 278 -594 323 -680 359 -680 7 0 13 -4 13 -10 0 -5
6 -10 13 -10 24 0 94 124 375 665 77 149 153 292 168 319 31 52 16 43 239 138
39 16 156 58 261 93 104 35 237 84 295 110 57 25 126 50 153 56 110 21 117 90
16 150 -98 59 -686 328 -930 425 l-85 34 -174 392 c-248 560 -290 641 -329
637 -4 0 -17 -4 -29 -9z"/>
</g>
</svg>
